P2
# Narrow corridor for degenerate geometry testing (1m x 10m)
20 200
255
0 0 0 0 0 0 0 0 0 0 0 0 0 0 0 0 0 0 0 0
0 0 0 0 0 0 0 0 0 0 0 0 0 0 0 0 0 0 0 0
0 0 255 255 255 255 255 255 255 255 255 255 255 255 255 255 255 255 0 0
0 0 255 255 255 255 255 255 255 255 255 255 255 255 255 255 255 255 0 0
0 0 255 255 255 255 255 255 255 255 255 255 255 255 255 255 255 255 0 0
0 0 255 255 255 255 255 255 255 255 255 255 255 255 255 255 255 255 0 0
0 0 255 255 255 255 255 255 255 255 255 255 255 255 255 255 255 255 0 0
0 0 255 255 255 255 255 255 255 255 255 255 255 255 255 255 255 255 0 0
0 0 255 255 255 255 255 255 255 255 255 255 255 255 255 255 255 255 0 0
0 0 255 255 255 255 255 255 255 255 255 255 255 255 255 255 255 255 0 0
0 0 255 255 255 255 255 255 255 255 255 255 255 255 255 255 255 255 0 0
0 0 255 255 255 255 255 255 255 255 255 255 255 255 255 255 255 255 0 0
0 0 255 255 255 255 255 255 255 255 255 255 255 255 255 255 255 255 0 0
0 0 255 255 255 255 255 255 255 255 255 255 255 255 255 255 255 255 0 0
0 0 255 255 255 255 255 255 255 255 255 255 255 255 255 255 255 255 0 0
0 0 255 255 255 255 255 255 255 255 255 255 255 255 255 255 255 255 0 0
0 0 255 255 255 255 255 255 255 255 255 255 255 255 255 255 255 255 0 0
0 0 255 255 255 255 255 255 255 255 255 255 255 255 255 255 255 255 0 0
0 0 255 255 255 255 255 255 255 255 255 255 255 255 255 255 255 255 0 0
0 0 255 255 255 255 255 255 255 255 255 255 255 255 255 255 255 255 0 0
0 0 255 255 255 255 255 255 255 255 255 255 255 255 255 255 255 255 0 0
0 0 255 255 255 255 255 255 255 255 255 255 255 255 255 255 255 255 0 0
0 0 255 255 255 255 255 255 255 255 255 255 255 255 255 255 255 255 0 0
0 0 255 255 255 255 255 255 255 255 255 255 255 255 255 255 255 255 0 0
0 0 255 255 255 255 255 255 255 255 255 255 255 255 255 255 255 255 0 0
0 0 255 255 255 255 255 255 255 255 255 255 255 255 255 255 255 255 0 0
0 0 255 255 255 255 255 255 255 255 255 255 255 255 255 255 255 255 0 0
0 0 255 255 255 255 255 255 255 255 255 255 255 255 255 255 255 255 0 0
0 0 255 255 255 255 255 255 255 255 255 255 255 255 255 255 255 255 0 0
0 0 255 255 255 255 255 255 255 255 255 255 255 255 255 255 255 255 0 0
0 0 255 255 255 255 255 255 255 255 255 255 255 255 255 255 255 255 0 0
0 0 255 255 255 255 255 255 255 255 255 255 255 255 255 255 255 255 0 0
0 0 255 255 255 255 255 255 255 255 255 255 255 255 255 255 255 255 0 0
0 0 255 255 255 255 255 255 255 255 255 255 255 255 255 255 255 255 0 0
0 0 255 255 255 255 255 255 255 255 255 255 255 255 255 255 255 255 0 0
0 0 255 255 255 255 255 255 255 255 255 255 255 255 255 255 255 255 0 0
0 0 255 255 255 255 255 255 255 255 255 255 255 255 255 255 255 255 0 0
0 0 255 255 255 255 255 255 255 255 255 255 255 255 255 255 255 255 0 0
0 0 255 255 255 255 255 255 255 255 255 255 255 255 255 255 255 255 0 0
0 0 255 255 255 255 255 255 255 255 255 255 255 255 255 255 255 255 0 0
0 0 255 255 255 255 255 255 255 255 255 255 255 255 255 255 255 255 0 0
0 0 255 255 255 255 255 255 255 255 255 255 255 255 255 255 255 255 0 0
0 0 255 255 255 255 255 255 255 255 255 255 255 255 255 255 255 255 0 0
0 0 255 255 255 255 255 255 255 255 255 255 255 255 255 255 255 255 0 0
0 0 255 255 255 255 255 255 255 255 255 255 255 255 255 255 255 255 0 0
0 0 255 255 255 255 255 255 255 255 255 255 255 255 255 255 255 255 0 0
0 0 255 255 255 255 255 255 255 255 255 255 255 255 255 255 255 255 0 0
0 0 255 255 255 255 255 255 255 255 255 255 255 255 255 255 255 255 0 0
0 0 255 255 255 255 255 255 255 255 255 255 255 255 255 255 255 255 0 0
0 0 255 255 255 255 255 255 255 255 255 255 255 255 255 255 255 255 0 0
0 0 255 255 255 255 255 255 255 255 255 255 255 255 255 255 255 255 0 0
0 0 255 255 255 255 255 255 255 255 255 255 255 255 255 255 255 255 0 0
0 0 255 255 255 255 255 255 255 255 255 255 255 255 255 255 255 255 0 0
0 0 255 255 255 255 255 255 255 255 255 255 255 255 255 255 255 255 0 0
0 0 255 255 255 255 255 255 255 255 255 255 255 255 255 255 255 255 0 0
0 0 255 255 255 255 255 255 255 255 255 255 255 255 255 255 255 255 0 0
0 0 255 255 255 255 255 255 255 255 255 255 255 255 255 255 255 255 0 0
0 0 255 255 255 255 255 255 255 255 255 255 255 255 255 255 255 255 0 0
0 0 255 255 255 255 255 255 255 255 255 255 255 255 255 255 255 255 0 0
0 0 255 255 255 255 255 255 255 255 255 255 255 255 255 255 255 255 0 0
0 0 255 255 255 255 255 255 255 255 255 255 255 255 255 255 255 255 0 0
0 0 255 255 255 255 255 255 255 255 255 255 255 255 255 255 255 255 0 0
0 0 255 255 255 255 255 255 255 255 255 255 255 255 255 255 255 255 0 0
0 0 255 255 255 255 255 255 255 255 255 255 255 255 255 255 255 255 0 0
0 0 255 255 255 255 255 255 255 255 255 255 255 255 255 255 255 255 0 0
0 0 255 255 255 255 255 255 255 255 255 255 255 255 255 255 255 255 0 0
0 0 255 255 255 255 255 255 255 255 255 255 255 255 255 255 255 255 0 0
0 0 255 255 255 255 255 255 255 255 255 255 255 255 255 255 255 255 0 0
0 0 255 255 255 255 255 255 255 255 255 255 255 255 255 255 255 255 0 0
0 0 255 255 255 255 255 255 255 255 255 255 255 255 255 255 255 255 0 0
0 0 255 255 255 255 255 255 255 255 255 255 255 255 255 255 255 255 0 0
0 0 255 255 255 255 255 255 255 255 255 255 255 255 255 255 255 255 0 0
0 0 255 255 255 255 255 255 255 255 255 255 255 255 255 255 255 255 0 0
0 0 255 255 255 255 255 255 255 255 255 255 255 255 255 255 255 255 0 0
0 0 255 255 255 255 255 255 255 255 255 255 255 255 255 255 255 255 0 0
0 0 255 255 255 255 255 255 255 255 255 255 255 255 255 255 255 255 0 0
0 0 255 255 255 255 255 255 255 255 255 255 255 255 255 255 255 255 0 0
0 0 255 255 255 255 255 255 255 255 255 255 255 255 255 255 255 255 0 0
0 0 255 255 255 255 255 255 255 255 255 255 255 255 255 255 255 255 0 0
0 0 255 255 255 255 255 255 255 255 255 255 255 255 255 255 255 255 0 0
0 0 255 255 255 255 255 255 255 255 255 255 255 255 255 255 255 255 0 0
0 0 255 255 255 255 255 255 255 255 255 255 255 255 255 255 255 255 0 0
0 0 255 255 255 255 255 255 255 255 255 255 255 255 255 255 255 255 0 0
0 0 255 255 255 255 255 255 255 255 255 255 255 255 255 255 255 255 0 0
0 0 255 255 255 255 255 255 255 255 255 255 255 255 255 255 255 255 0 0
0 0 255 255 255 255 255 255 255 255 255 255 255 255 255 255 255 255 0 0
0 0 255 255 255 255 255 255 255 255 255 255 255 255 255 255 255 255 0 0
0 0 255 255 255 255 255 255 255 255 255 255 255 255 255 255 255 255 0 0
0 0 255 255 255 255 255 255 255 255 255 255 255 255 255 255 255 255 0 0
0 0 255 255 255 255 255 255 255 255 255 255 255 255 255 255 255 255 0 0
0 0 255 255 255 255 255 255 255 255 255 255 255 255 255 255 255 255 0 0
0 0 255 255 255 255 255 255 255 255 255 255 255 255 255 255 255 255 0 0
0 0 255 255 255 255 255 255 255 255 255 255 255 255 255 255 255 255 0 0
0 0 255 255 255 255 255 255 255 255 255 255 255 255 255 255 255 255 0 0
0 0 255 255 255 255 255 255 255 255 255 255 255 255 255 255 255 255 0 0
0 0 255 255 255 255 255 255 255 255 255 255 255 255 255 255 255 255 0 0
0 0 255 255 255 255 255 255 255 255 255 255 255 255 255 255 255 255 0 0
0 0 255 255 255 255 255 255 255 255 255 255 255 255 255 255 255 255 0 0
0 0 255 255 255 255 255 255 255 255 255 255 255 255 255 255 255 255 0 0
0 0 255 255 255 255 255 255 255 255 255 255 255 255 255 255 255 255 0 0
0 0 255 255 255 255 255 255 255 255 255 255 255 255 255 255 255 255 0 0
0 0 255 255 255 255 255 255 255 255 255 255 255 255 255 255 255 255 0 0
0 0 255 255 255 255 255 255 255 255 255 255 255 255 255 255 255 255 0 0
0 0 255 255 255 255 255 255 255 255 255 255 255 255 255 255 255 255 0 0
0 0 255 255 255 255 255 255 255 255 255 255 255 255 255 255 255 255 0 0
0 0 255 255 255 255 255 255 255 255 255 255 255 255 255 255 255 255 0 0
0 0 255 255 255 255 255 255 255 255 255 255 255 255 255 255 255 255 0 0
0 0 255 255 255 255 255 255 255 255 255 255 255 255 255 255 255 255 0 0
0 0 255 255 255 255 255 255 255 255 255 255 255 255 255 255 255 255 0 0
0 0 255 255 255 255 255 255 255 255 255 255 255 255 255 255 255 255 0 0
0 0 255 255 255 255 255 255 255 255 255 255 255 255 255 255 255 255 0 0
0 0 255 255 255 255 255 255 255 255 255 255 255 255 255 255 255 255 0 0
0 0 255 255 255 255 255 255 255 255 255 255 255 255 255 255 255 255 0 0
0 0 255 255 255 255 255 255 255 255 255 255 255 255 255 255 255 255 0 0
0 0 255 255 255 255 255 255 255 255 255 255 255 255 255 255 255 255 0 0
0 0 255 255 255 255 255 255 255 255 255 255 255 255 255 255 255 255 0 0
0 0 255 255 255 255 255 255 255 255 255 255 255 255 255 255 255 255 0 0
0 0 255 255 255 255 255 255 255 255 255 255 255 255 255 255 255 255 0 0
0 0 255 255 255 255 255 255 255 255 255 255 255 255 255 255 255 255 0 0
0 0 255 255 255 255 255 255 255 255 255 255 255 255 255 255 255 255 0 0
0 0 255 255 255 255 255 255 255 255 255 255 255 255 255 255 255 255 0 0
0 0 255 255 255 255 255 255 255 255 255 255 255 255 255 255 255 255 0 0
0 0 255 255 255 255 255 255 255 255 255 255 255 255 255 255 255 255 0 0
0 0 255 255 255 255 255 255 255 255 255 255 255 255 255 255 255 255 0 0
0 0 255 255 255 255 255 255 255 255 255 255 255 255 255 255 255 255 0 0
0 0 255 255 255 255 255 255 255 255 255 255 255 255 255 255 255 255 0 0
0 0 255 255 255 255 255 255 255 255 255 255 255 255 255 255 255 255 0 0
0 0 255 255 255 255 255 255 255 255 255 255 255 255 255 255 255 255 0 0
0 0 255 255 255 255 255 255 255 255 255 255 255 255 255 255 255 255 0 0
0 0 255 255 255 255 255 255 255 255 255 255 255 255 255 255 255 255 0 0
0 0 255 255 255 255 255 255 255 255 255 255 255 255 255 255 255 255 0 0
0 0 255 255 255 255 255 255 255 255 255 255 255 255 255 255 255 255 0 0
0 0 255 255 255 255 255 255 255 255 255 255 255 255 255 255 255 255 0 0
0 0 255 255 255 255 255 255 255 255 255 255 255 255 255 255 255 255 0 0
0 0 255 255 255 255 255 255 255 255 255 255 255 255 255 255 255 255 0 0
0 0 255 255 255 255 255 255 255 255 255 255 255 255 255 255 255 255 0 0
0 0 255 255 255 255 255 255 255 255 255 255 255 255 255 255 255 255 0 0
0 0 255 255 255 255 255 255 255 255 255 255 255 255 255 255 255 255 0 0
0 0 255 255 255 255 255 255 255 255 255 255 255 255 255 255 255 255 0 0
0 0 255 255 255 255 255 255 255 255 255 255 255 255 255 255 255 255 0 0
0 0 255 255 255 255 255 255 255 255 255 255 255 255 255 255 255 255 0 0
0 0 255 255 255 255 255 255 255 255 255 255 255 255 255 255 255 255 0 0
0 0 255 255 255 255 255 255 255 255 255 255 255 255 255 255 255 255 0 0
0 0 255 255 255 255 255 255 255 255 255 255 255 255 255 255 255 255 0 0
0 0 255 255 255 255 255 255 255 255 255 255 255 255 255 255 255 255 0 0
0 0 255 255 255 255 255 255 255 255 255 255 255 255 255 255 255 255 0 0
0 0 255 255 255 255 255 255 255 255 255 255 255 255 255 255 255 255 0 0
0 0 255 255 255 255 255 255 255 255 255 255 255 255 255 255 255 255 0 0
0 0 255 255 255 255 255 255 255 255 255 255 255 255 255 255 255 255 0 0
0 0 255 255 255 255 255 255 255 255 255 255 255 255 255 255 255 255 0 0
0 0 255 255 255 255 255 255 255 255 255 255 255 255 255 255 255 255 0 0
0 0 255 255 255 255 255 255 255 255 255 255 255 255 255 255 255 255 0 0
0 0 255 255 255 255 255 255 255 255 255 255 255 255 255 255 255 255 0 0
0 0 255 255 255 255 255 255 255 255 255 255 255 255 255 255 255 255 0 0
0 0 255 255 255 255 255 255 255 255 255 255 255 255 255 255 255 255 0 0
0 0 255 255 255 255 255 255 255 255 255 255 255 255 255 255 255 255 0 0
0 0 255 255 255 255 255 255 255 255 255 255 255 255 255 255 255 255 0 0
0 0 255 255 255 255 255 255 255 255 255 255 255 255 255 255 255 255 0 0
0 0 255 255 255 255 255 255 255 255 255 255 255 255 255 255 255 255 0 0
0 0 255 255 255 255 255 255 255 255 255 255 255 255 255 255 255 255 0 0
0 0 255 255 255 255 255 255 255 255 255 255 255 255 255 255 255 255 0 0
0 0 255 255 255 255 255 255 255 255 255 255 255 255 255 255 255 255 0 0
0 0 255 255 255 255 255 255 255 255 255 255 255 255 255 255 255 255 0 0
0 0 255 255 255 255 255 255 255 255 255 255 255 255 255 255 255 255 0 0
0 0 255 255 255 255 255 255 255 255 255 255 255 255 255 255 255 255 0 0
0 0 255 255 255 255 255 255 255 255 255 255 255 255 255 255 255 255 0 0
0 0 255 255 255 255 255 255 255 255 255 255 255 255 255 255 255 255 0 0
0 0 255 255 255 255 255 255 255 255 255 255 255 255 255 255 255 255 0 0
0 0 255 255 255 255 255 255 255 255 255 255 255 255 255 255 255 255 0 0
0 0 255 255 255 255 255 255 255 255 255 255 255 255 255 255 255 255 0 0
0 0 255 255 255 255 255 255 255 255 255 255 255 255 255 255 255 255 0 0
0 0 255 255 255 255 255 255 255 255 255 255 255 255 255 255 255 255 0 0
0 0 255 255 255 255 255 255 255 255 255 255 255 255 255 255 255 255 0 0
0 0 255 255 255 255 255 255 255 255 255 255 255 255 255 255 255 255 0 0
0 0 255 255 255 255 255 255 255 255 255 255 255 255 255 255 255 255 0 0
0 0 255 255 255 255 255 255 255 255 255 255 255 255 255 255 255 255 0 0
0 0 255 255 255 255 255 255 255 255 255 255 255 255 255 255 255 255 0 0
0 0 255 255 255 255 255 255 255 255 255 255 255 255 255 255 255 255 0 0
0 0 255 255 255 255 255 255 255 255 255 255 255 255 255 255 255 255 0 0
0 0 255 255 255 255 255 255 255 255 255 255 255 255 255 255 255 255 0 0
0 0 255 255 255 255 255 255 255 255 255 255 255 255 255 255 255 255 0 0
0 0 255 255 255 255 255 255 255 255 255 255 255 255 255 255 255 255 0 0
0 0 255 255 255 255 255 255 255 255 255 255 255 255 255 255 255 255 0 0
0 0 255 255 255 255 255 255 255 255 255 255 255 255 255 255 255 255 0 0
0 0 255 255 255 255 255 255 255 255 255 255 255 255 255 255 255 255 0 0
0 0 255 255 255 255 255 255 255 255 255 255 255 255 255 255 255 255 0 0
0 0 255 255 255 255 255 255 255 255 255 255 255 255 255 255 255 255 0 0
0 0 255 255 255 255 255 255 255 255 255 255 255 255 255 255 255 255 0 0
0 0 255 255 255 255 255 255 255 255 255 255 255 255 255 255 255 255 0 0
0 0 255 255 255 255 255 255 255 255 255 255 255 255 255 255 255 255 0 0
0 0 255 255 255 255 255 255 255 255 255 255 255 255 255 255 255 255 0 0
0 0 255 255 255 255 255 255 255 255 255 255 255 255 255 255 255 255 0 0
0 0 255 255 255 255 255 255 255 255 255 255 255 255 255 255 255 255 0 0
0 0 255 255 255 255 255 255 255 255 255 255 255 255 255 255 255 255 0 0
0 0 255 255 255 255 255 255 255 255 255 255 255 255 255 255 255 255 0 0
0 0 255 255 255 255 255 255 255 255 255 255 255 255 255 255 255 255 0 0
0 0 255 255 255 255 255 255 255 255 255 255 255 255 255 255 255 255 0 0
0 0 255 255 255 255 255 255 255 255 255 255 255 255 255 255 255 255 0 0
0 0 0 0 0 0 0 0 0 0 0 0 0 0 0 0 0 0 0 0
0 0 0 0 0 0 0 0 0 0 0 0 0 0 0 0 0 0 0 0
